<?xml version="1.0" encoding="UTF-8"?>
<!-- Generator: Adobe Illustrator 27.0.1, SVG Export Plug-In . SVG Version: 6.00 Build 0)  -->
<svg xmlns="http://www.w3.org/2000/svg" xmlns:xlink="http://www.w3.org/1999/xlink" version="1.1" id="Layer_1" x="0px" y="0px" viewBox="0 0 841.89 363.64" style="enable-background:new 0 0 841.89 363.64;" xml:space="preserve"><title>baaboo.com/wp-content/uploads/2023/05/baaboo-logo.svg - https://baaboo.com/wp-content/uploads/2023/05/baaboo-logo.svg</title>
<style type="text/css">
	.st0{fill:#EB601D;}
	.st1{fill:#010202;}
</style>
<g>
	<path class="st0" d="M183.03,176.04c0,37.39-18.01,64.07-47.88,64.07c-13.45,0-24.17-5.7-31.69-15.5l-1.82,11.86H72.91V67.51   l32.38-3.65v64.75c7.52-10.26,19.38-16.64,33.06-16.64C166.62,111.97,183.03,135.69,183.03,176.04z M149.29,176.04   c0-31.46-8.89-40.13-21.66-40.13c-9.35,0-16.87,6.38-22.34,15.5v51.76c5.01,8.21,12.08,13,20.75,13   C139.71,216.17,149.29,205.45,149.29,176.04z"/>
	<path class="st0" d="M305.47,218.22l-6.84,21.43c-13.68-1.14-22.8-5.7-27.82-17.78c-8.66,13.22-21.89,18.24-36.25,18.24   c-24.17,0-39.21-15.5-39.21-37.39c0-26.45,19.84-40.81,55.63-40.81h13.91v-5.93c0-15.05-6.38-19.83-21.66-19.83   c-7.98,0-19.61,2.28-31.92,6.38l-7.3-21.66c15.05-5.93,31.01-8.89,44.69-8.89c33.52,0,47.88,14.82,47.88,42.18v48.79   C296.58,212.75,299.54,216.17,305.47,218.22z M264.89,203.4v-23.03h-10.72c-17.56,0-26.22,6.39-26.22,19.61   c0,10.72,5.47,16.87,15.5,16.87C252.8,216.85,259.87,212.06,264.89,203.4z"/>
	<path class="st0" d="M426.77,218.22l-6.84,21.43c-13.68-1.14-22.8-5.7-27.82-17.78c-8.66,13.22-21.89,18.24-36.25,18.24   c-24.17,0-39.21-15.5-39.21-37.39c0-26.45,19.84-40.81,55.63-40.81h13.91v-5.93c0-15.05-6.38-19.83-21.66-19.83   c-7.98,0-19.61,2.28-31.92,6.38l-7.3-21.66c15.05-5.93,31.01-8.89,44.69-8.89c33.52,0,47.88,14.82,47.88,42.18v48.79   C417.88,212.75,420.84,216.17,426.77,218.22z M386.19,203.4v-23.03h-10.72c-17.56,0-26.22,6.39-26.22,19.61   c0,10.72,5.47,16.87,15.5,16.87C374.11,216.85,381.17,212.06,386.19,203.4z"/>
	<path class="st1" d="M553.11,176.04c0,37.39-18.01,64.07-47.88,64.07c-13.45,0-24.17-5.7-31.69-15.5l-1.82,11.86h-28.73V67.51   l32.38-3.65v64.75c7.52-10.26,19.38-16.64,33.06-16.64C536.69,111.97,553.11,135.69,553.11,176.04z M519.36,176.04   c0-31.46-8.89-40.13-21.66-40.13c-9.35,0-16.87,6.38-22.34,15.5v51.76c5.01,8.21,12.08,13,20.75,13   C509.79,216.17,519.36,205.45,519.36,176.04z"/>
	<path class="st1" d="M652.97,293.25c2.93,2.61,22.16,13.64,44.32-0.68C675.13,297.88,656.75,294.2,652.97,293.25z"/>
	<path class="st1" d="M680.41,173.04c5.83,37.73-11.23,66.51-46.48,71.96s-59.96-15.25-66.04-54.57   c-5.8-37.51,11.27-66.29,46.74-71.77C649.88,113.21,674.37,133.95,680.41,173.04z M598.39,185.71   c4.43,28.69,15.2,39.98,32.15,37.37c16.94-2.62,23.77-16.86,19.37-45.33c-4.4-28.47-15.17-39.76-31.89-37.18   C601.07,143.19,594.03,157.47,598.39,185.71z"/>
	<path class="st1" d="M767.35,192.66c-6.19,30.25-27.22,47.28-55.48,41.5c-28.26-5.78-41.18-28.43-34.74-59.95   c6.15-30.07,27.19-47.1,55.63-41.28C761.02,138.71,773.76,161.32,767.35,192.66z M701.59,179.21c-4.7,23.01,0.28,34.6,13.87,37.37   c13.59,2.78,22.76-6.1,27.43-28.93c4.67-22.83-0.32-34.42-13.73-37.16C715.58,147.72,706.22,156.56,701.59,179.21z"/>
	<path class="st1" d="M660.29,107.9c1.03-2.02,2.05-4.05,3.08-6.07c-21.47-22.31-59.7-21.35-80.11,0.09   c1.03,2.03,2.06,4.05,3.1,6.06C609.57,96.12,637.05,96.09,660.29,107.9z"/>
	<path class="st1" d="M758.96,123.92c0.94-1.64,1.9-3.27,2.84-4.91c-16.03-18.72-47.78-21.2-66.61-3.59   c0.77,1.73,1.53,3.45,2.3,5.18C717.33,111.81,740.18,113.04,758.96,123.92z"/>
	<path class="st1" d="M709.28,186.83c1.3-9.13,7.57-15.79,14-14.87c0.91,0.13,1.75,0.43,2.55,0.82c-0.36,0.91-0.66,1.87-0.81,2.93   c-0.72,5.03,1.57,9.51,5.12,10.01c0.87,0.13,1.75-0.01,2.57-0.35c0.1,1.54,0.1,3.14-0.14,4.78c-1.3,9.13-7.57,15.79-14,14.87   C712.14,204.11,707.97,195.96,709.28,186.83z"/>
	<path class="st1" d="M622.45,165.65c1.11-0.13,2.21-0.05,3.29,0.17c-0.15,1.19-0.18,2.43-0.03,3.73c0.74,6.19,4.88,10.8,9.24,10.27   c1.08-0.13,2.08-0.56,2.94-1.23c0.61,1.8,1.11,3.69,1.36,5.72c1.35,11.26-3.99,21.15-11.92,22.1c-7.93,0.95-15.45-7.4-16.8-18.66   C609.18,176.49,614.52,166.6,622.45,165.65z"/>
	<g>
		<path class="st0" d="M667.01,285.4c-38.38-2.44-62.56-23.29-63.54-25.01c-1.81-3.18,1.36-7.11,5-5.18    c4.69,2.49,13.08,10.26,33.57,15.5c34.9,8.93,65.45-2.54,96.99-28.93c2.28-1.91,7.32-0.99,9.72,1.93    c3.43,4.18,0.94,9.75-1.1,11.45C718.62,279.37,690.82,286.92,667.01,285.4z M613.01,257.89L613.01,257.89L613.01,257.89z     M613.01,257.88L613.01,257.88L613.01,257.88z"/>
	</g>
</g>
</svg>