<?xml version="1.0" encoding="utf-8"?>
<!-- Generator: Adobe Illustrator 22.0.1, SVG Export Plug-In . SVG Version: 6.00 Build 0)  -->
<svg version="1.1" id="Ebene_1" xmlns="http://www.w3.org/2000/svg" xmlns:xlink="http://www.w3.org/1999/xlink" x="0px" y="0px"
	 viewBox="0 0 369.3 62.5" style="enable-background:new 0 0 369.3 62.5;" xml:space="preserve">
<style type="text/css">
	.st0{fill:#79727F;}
	.st1{fill:#FFD91D;}
</style>
<g>
	<path class="st0" d="M98.7,31.6l0,0.1L98.7,31.6c-4.2-0.9-7.9-1.7-7.9-4.5c0-3.1,2.6-4.5,8.3-4.5c2.8,0,5,0.6,6.3,1.8
		c-0.7,0.5-1.1,1.3-1,2.2c0.1,1.1,0.8,2,2,2.3c1.2,0.3,2-0.1,2.4-0.5c0.7-0.5,1.1-1.4,1.1-2.5c0-4.9-6.6-6.7-10.7-6.7
		c-7.5,0-11.6,2.8-11.6,7.9c0,5.6,5.7,6.8,10.7,7.9c4.6,1,8.9,1.9,8.9,5.7c0,3.8-4.5,5.5-8.8,5.5h-0.8c-0.6,0-1.3-0.1-2-0.2l-0.1,0
		c-0.2,0-0.4,0-0.7-0.1l-0.3-0.1c-0.8-0.2-1.6-0.4-2.5-0.7c-0.5-0.2-0.9-0.5-1.3-0.8c0.8-0.7,1-1.6,1-2.3c-0.1-1.1-0.9-2-2.1-2.2
		c-1.4-0.2-2.2,0.2-2.6,0.6c-0.6,0.6-0.9,1.6-0.8,2.6c0.5,5,8,6.4,11.8,6.5h0.4c5.8,0,12.1-2.8,12.1-8.8
		C110.5,34.1,104.2,32.8,98.7,31.6z"/>
	<path class="st0" d="M132.3,19.1c-5.2,0-9.6,2.3-12.2,6.3v-3.9c0-1.1-0.9-1.7-1.7-1.7h-2.7c-1.1,0-1.7,0.9-1.7,1.7s0.6,1.7,1.7,1.7
		h1v36.1h-1.1c-1.1,0-1.7,0.9-1.7,1.7s0.6,1.7,1.7,1.7h5.6c1.1,0,1.7-0.9,1.7-1.7s-0.6-1.7-1.7-1.7h-1.1V43.3
		c2.6,3.9,7,6.2,12.2,6.2c8.6,0,15.3-6.7,15.3-15.2C147.6,25.8,140.9,19.1,132.3,19.1z M132.4,46.1c-6.9,0-12.3-5.2-12.3-11.9l0-0.5
		c0.3-6.4,5.5-11.3,12.2-11.3c7.4,0,11.8,6,11.8,11.8C144.1,40.1,139.7,46.1,132.4,46.1z"/>
	<path class="st0" d="M166,19.1c-3.3,0-7.3,2.5-9.5,5.9v-3.5c0-1.1-0.9-1.7-1.7-1.7h-2.7c-1.1,0-1.7,0.9-1.7,1.7s0.6,1.7,1.7,1.7h1
		v22.3h-1c-1.1,0-1.7,0.9-1.7,1.7s0.6,1.7,1.7,1.7h5.6c1.1,0,1.7-0.9,1.7-1.7s-0.6-1.7-1.7-1.7h-1.2l0-10.8
		c0.1-4.4,1.8-8.2,4.7-10.4c1.4-1.1,3-1.7,4.4-1.7c0,0,0,0,0,0c-0.2,1.3,0.6,2.3,1.4,2.8c1.1,0.6,2.6,0.5,3.5-1.1
		c0.3-0.5,0.4-1,0.4-1.6C171,20.9,169.3,19.1,166,19.1z"/>
	<path class="st0" d="M181.8,45.5h-1.2V21.5c0-1.1-0.9-1.7-1.7-1.7h-2.7c-1.1,0-1.7,0.9-1.7,1.7s0.6,1.7,1.7,1.7h1v22.3h-1
		c-1.1,0-1.7,0.9-1.7,1.7s0.6,1.7,1.7,1.7h5.6c1.1,0,1.7-0.9,1.7-1.7S183,45.5,181.8,45.5z"/>
	<path class="st0" d="M178.9,15c1.3,0,2.6-1,2.6-2.7s-1.3-2.7-2.6-2.7c-1.6,0-2.7,1.1-2.7,2.7S177.3,15,178.9,15z"/>
	<path class="st0" d="M218,45.5h-1V33.8c0-9.6-4.9-14.7-14.1-14.7c-4.1,0-7.7,1.6-9.7,4.3v-1.9c0-1.1-0.9-1.7-1.7-1.7h-2.7
		c-1.1,0-1.7,0.9-1.7,1.7s0.6,1.7,1.7,1.7h1v22.3h-1.1c-1.1,0-1.7,0.9-1.7,1.7s0.6,1.7,1.7,1.7h5.6c1.1,0,1.7-0.9,1.7-1.7
		s-0.6-1.7-1.7-1.7h-1.1l0-12.9c0.3-3.8,1.9-10.1,9.7-10.1c7.3,0,10.7,3.6,10.7,11.3v13.3c0,1.1,0.9,1.7,1.7,1.7h2.7
		c1.1,0,1.7-0.9,1.7-1.7S219.1,45.5,218,45.5z"/>
	<path class="st0" d="M253.2,19.8h-2.9c-1,0-1.7,0.6-1.7,1.7v4c-2.6-4-7-6.3-12.3-6.3c-8.6,0-15.3,6.7-15.3,15.2
		c0,8.5,6.7,15.1,15.3,15.1c5.2,0,9.6-2.3,12.3-6.3v1.7c0,8.4-4.6,13-12.8,13c-3.2,0-7.5-0.7-9.5-2.8c0.7-0.6,1.1-1.6,1-2.5
		c-0.1-1-0.9-2.1-2.7-2.1c-1.6,0-2.7,1.4-2.7,3.4c0,4.1,6.1,7.3,13.9,7.3c4.9,0,16.2-1.6,16.2-16.3V23.1h1.2c1.1,0,1.7-0.9,1.7-1.7
		C255,20.5,254.3,19.8,253.2,19.8z M236.4,46.1c-7.4,0-11.8-6-11.8-11.8c0-5.8,4.4-11.9,11.7-11.9c6.9,0,12.3,5.2,12.3,11.9
		C248.6,41.1,243.4,46.1,236.4,46.1z"/>
	<path class="st0" d="M265.6,45.5h-1.5V1.7c0-1.1-0.9-1.7-1.7-1.7h-2.9c-1.1,0-1.7,0.9-1.7,1.7s0.6,1.7,1.7,1.7h1.2v42.1H260
		c-1.1,0-1.7,0.9-1.7,1.7s0.6,1.7,1.7,1.7h5.6c1.1,0,1.7-0.9,1.7-1.7S266.7,45.5,265.6,45.5z"/>
	<path class="st0" d="M301.2,45.5H300V21.5c0-0.5-0.2-1-0.5-1.3c-0.3-0.3-0.7-0.4-1.1-0.4c-0.8,0-1.7,0.6-1.7,1.7v3.9
		c-2.6-4-7-6.3-12.2-6.3c-8.6,0-15.3,6.7-15.3,15.2c0,8.5,6.7,15.1,15.3,15.1c5.2,0,9.6-2.3,12.2-6.3v3.9c0,1.1,0.9,1.7,1.7,1.7h2.9
		c1.1,0,1.7-0.9,1.7-1.7S302.3,45.5,301.2,45.5z M284.4,46.1c-7.4,0-11.8-6-11.8-11.8c0-5.8,4.4-11.9,11.7-11.9
		c6.9,0,12.3,5.2,12.3,11.9C296.6,41.1,291.4,46.1,284.4,46.1z"/>
	<path class="st0" d="M337.4,45.5h-1V33.8c0-9.6-4.9-14.7-14.1-14.7c-4.1,0-7.7,1.6-9.7,4.3v-1.9c0-1.1-0.9-1.7-1.7-1.7h-2.7
		c-1.1,0-1.7,0.9-1.7,1.7s0.6,1.7,1.7,1.7h1v22.3h-1.1c-1.1,0-1.7,0.9-1.7,1.7s0.6,1.7,1.7,1.7h5.6c1.1,0,1.7-0.9,1.7-1.7
		s-0.6-1.7-1.7-1.7h-1.1l0-12.9c0.3-3.8,1.9-10.1,9.7-10.1c7.3,0,10.7,3.6,10.7,11.3v13.3c0,1.1,0.9,1.7,1.7,1.7h2.7
		c1.1,0,1.7-0.9,1.7-1.7S338.5,45.5,337.4,45.5z"/>
	<path class="st0" d="M367.1,42.7c-0.5-0.1-1,0.1-1.3,0.4c-0.6,0.5-3.8,3-9.5,3c-6,0-11.3-4.7-12.1-10.4c4.7,2.3,8.6,2.6,11.8,2.6
		c7.7,0,13.3-4.1,13.3-9.7c0-5.5-5.6-9.5-13.4-9.5c-8.5,0-15.3,6.8-15.3,15.1c0,8.3,7.2,15.3,15.7,15.3c3.4,0,5.9-0.7,7.3-1.2
		c1.8-0.7,3.1-1.5,4.1-2.4c0.4-0.4,1.2-1.2,0.6-2.4C368,43.1,367.6,42.8,367.1,42.7z M355.9,22.5c5.7,0,9.9,2.6,9.9,6.2
		c0,3.7-4.2,6.4-9.8,6.4c-2.9,0-7.7-0.7-11.8-2.8C345.2,26.7,350.2,22.5,355.9,22.5z"/>
</g>
<path class="st1" d="M67.5,13.1c-2.6-2.8-6.3-4.5-10-4.5c-2,0-4.1,0.4-6.1,1.2c-0.7-1.1-1.5-2.1-2.4-3c-2.4-2.4-6.6-5.2-13.1-5.2
	c-6,0-11.6,3.2-14.7,8.4c-1.3-0.5-2.9-0.8-4.5-0.9C13.9,9,11,9.6,8.5,10.7C5.3,12.2,0,16,0,24.9c0,6.5,2.7,11.8,8.1,15.8
	c4,3,8.7,4.6,13.1,5.9c3.7,1.1,6.5,3.4,8.1,6.9c1.3,2.6,1.4,5,1.4,5l0.2,3.9l3.3-2.2c0.2-0.2,24.5-16.1,27.4-18.3
	c3.7-2.8,10-9.7,10-17.9C71.6,19.9,70.2,16,67.5,13.1z M18.7,19.6c0.1,3.4,1.3,6.7,3.3,9.9c0.7,1.2,1.8,1.5,3,0.8
	c0.7-0.3,1-0.9,1.2-1.2c0.1-0.4,0.2-1.1-0.3-2l0-0.1c-3.1-4.7-3.4-10-1.1-14.4c2.2-4.1,6.5-6.6,11.1-6.6c4,0,7.3,1.3,9.9,3.8
	c0.6,0.6,1.2,1.3,1.8,2.1c-3.5,2.6-5.5,6.2-5.5,10c0,0,0,0.5,0.1,0.9s0.3,0.7,0.6,0.9c0.4,0.4,1,0.6,1.6,0.6c0.8,0,1.3-0.3,1.6-0.5
	c0.3-0.2,0.4-0.6,0.5-0.9c0.1-0.4,0.1-0.9,0.1-0.9c0-2.3,1.3-4.5,3.5-6.3c2.2-1.7,5-2.7,7.5-2.7c5.3,0,9.6,4.9,9.6,11
	c0,2.8-1,5.8-3,8.7c-2.1,3.2-4.5,5.1-5.2,5.6C56.7,40.1,40,51.1,34.6,54.7c-0.3-1-0.7-2.1-1.2-3c-2.2-4.6-6-7.9-11-9.4
	c-3.9-1.2-8.8-2.9-12.4-5.8c-3.7-3-5.5-6.8-5.5-11.6c0-6,3.2-8.8,5.9-10c1.6-0.8,3.8-1.2,5.7-1.2c1.2,0,2.3,0.2,3.2,0.5
	C18.9,15.9,18.6,17.8,18.7,19.6z"/>
</svg>
